<?xml version="1.0" encoding="UTF-8"?>
<svg id="Layer_2" data-name="Layer 2" xmlns="http://www.w3.org/2000/svg" viewBox="0 0 208.61 82.25">
  <defs>
    <style>
      .cls-1 {
        fill: #de3115;
      }

      .cls-1, .cls-2 {
        stroke-width: 0px;
      }

      .cls-2 {
        fill: #fff;
      }
    </style>
  </defs>
  <g id="Layer_1-2" data-name="Layer 1">
    <g>
      <g>
        <path class="cls-2" d="M36.97,13.92l-18.31,40.49h-.42L0,13.92h6.62l11.81,26.85,11.86-26.85h6.67Z"/>
        <path class="cls-2" d="M108.81,13.82v40.46h-.29l-25.38-26.51v25.87h-6.23V13.23h.32l25.33,26.46V13.82h6.25Z"/>
      </g>
      <g>
        <path class="cls-2" d="M152.79,33.81c0,12.31-8.25,19.79-21.73,19.79h-12.95V13.95l12.95-.02c13.49-.05,21.73,7.48,21.73,19.89ZM142.23,33.78c0-6.23-4.33-10.02-11.45-10.02h-2.41v19.91h2.51c7.04,0,11.35-3.74,11.35-9.89Z"/>
        <path class="cls-2" d="M157.96,13.92h10.53v39.68h-10.53V13.92Z"/>
        <path class="cls-2" d="M173.32,46.88l6.37-6.25c1.65,2.44,4.73,3.91,8.05,3.91,2.24,0,4.43-.81,4.43-2.44,0-2.04-4.06-3.84-7.95-5.56-5.02-2.17-9.33-5.46-9.33-11.44,0-6.87,6.52-11.77,14.05-11.77,6.05,0,10.78,2.85,12.33,6.77l-6.08,5.86c-1.18-2.09-4.23-3-6.13-3-2.17,0-3.72,1.11-3.72,2.46,0,1.82,2.81,2.41,7.09,4.21,6.2,2.61,10.31,6.4,10.31,12.26,0,7.56-7.04,12.26-14.99,12.26-6.52,0-12.45-2.88-14.45-7.26Z"/>
      </g>
      <path class="cls-1" d="M32.84,53.79L51.86,13.63h.42s17.53,40.81,17.53,40.81l-6.62-.12-11.34-27.05-12.33,26.64-6.67-.12Z"/>
      <g>
        <path class="cls-1" d="M6.37,78.91l1.49-1.1c.78,1.47,2.54,2.45,4.36,2.45,2.25,0,4.08-1.22,4.08-2.91,0-1.93-2.46-2.86-4.66-3.69-2.11-.82-4.47-1.86-4.47-4.51s2.38-4.62,5.4-4.62c2.55,0,4.29,1.4,4.93,3.09l-1.46.98c-.55-1.29-1.94-2.17-3.49-2.17-1.85,0-3.42,1.22-3.42,2.75,0,1.66,1.89,2.27,4.11,3.13,2.58,1.04,5.02,2.24,5.02,5,0,2.97-2.74,4.9-6.05,4.9-2.83,0-5.02-1.47-5.85-3.31Z"/>
        <path class="cls-1" d="M27.04,73.4c0-4.87,3.98-8.85,8.83-8.85s8.84,3.98,8.84,8.85-3.98,8.81-8.85,8.81-8.82-3.97-8.82-8.81ZM42.75,73.39c0-3.79-3.09-6.89-6.89-6.89s-6.86,3.1-6.86,6.89,3.08,6.86,6.86,6.86,6.89-3.08,6.89-6.86Z"/>
        <path class="cls-1" d="M64.92,80.06v1.93h-10.37v-17.19h1.94v15.26h8.43Z"/>
        <path class="cls-1" d="M74.21,75.31v-10.52h1.95v10.51c0,2.89,1.88,4.99,4.42,4.99s4.42-2.11,4.42-4.99v-10.51h1.95v10.52c0,4.01-2.71,6.94-6.37,6.94s-6.37-2.93-6.37-6.94Z"/>
        <path class="cls-1" d="M108.17,66.71h-4.98v15.27h-1.94v-15.27h-5v-1.92h11.92v1.92Z"/>
        <path class="cls-1" d="M117.67,64.79h1.94v17.19h-1.94v-17.19Z"/>
        <path class="cls-1" d="M129.47,73.4c0-4.87,3.98-8.85,8.83-8.85s8.84,3.98,8.84,8.85-3.98,8.81-8.85,8.81-8.82-3.97-8.82-8.81ZM145.18,73.39c0-3.79-3.09-6.89-6.89-6.89s-6.86,3.1-6.86,6.89,3.08,6.86,6.86,6.86,6.89-3.08,6.89-6.86Z"/>
        <path class="cls-1" d="M170.81,64.75v17.5h-.1l-11.79-13.09v12.84h-1.94v-17.48h.11l11.77,13.08v-12.85h1.94Z"/>
        <path class="cls-1" d="M180.49,78.91l1.49-1.1c.78,1.47,2.54,2.45,4.36,2.45,2.25,0,4.08-1.22,4.08-2.91,0-1.93-2.46-2.86-4.66-3.69-2.11-.82-4.47-1.86-4.47-4.51s2.38-4.62,5.4-4.62c2.55,0,4.29,1.4,4.93,3.09l-1.46.98c-.55-1.29-1.94-2.17-3.49-2.17-1.85,0-3.42,1.22-3.42,2.75,0,1.66,1.89,2.27,4.11,3.13,2.58,1.04,5.02,2.24,5.02,5,0,2.97-2.74,4.9-6.05,4.9-2.83,0-5.02-1.47-5.85-3.31Z"/>
      </g>
      <rect class="cls-1" x="1.83" width="1.68" height="9.77"/>
      <rect class="cls-1" x="2.46" width="205.31" height="1.68"/>
      <rect class="cls-1" x="206.93" width="1.68" height="73.04"/>
      <rect class="cls-1" x="197.35" y="71.36" width="10.21" height="1.68"/>
    </g>
    <polygon class="cls-1" points="135.48 74.6 137.55 69.24 139.82 68.87 138.56 72.22 141.94 71.73 137.44 78.37 137.6 74.5 135.48 74.6"/>
  </g>
</svg>