<svg width="119" height="40" viewBox="0 0 119 40" fill="none" xmlns="http://www.w3.org/2000/svg">
<g clip-path="url(#clip0_1773_10186)">
<g clip-path="url(#clip1_1773_10186)">
<path d="M24.7646 15.2987V11.0408H38.1317C37.6834 10.1472 37.1672 9.28076 36.583 8.4549H31.6519V3.54036C30.8232 2.9582 29.9538 2.44373 29.0573 1.99695V8.4549H24.7646V0.446776C23.8884 0.236927 23.019 0.0880013 22.1699 0V17.8846H40.1286C40.0403 17.0384 39.8909 16.1652 39.6803 15.2987H24.7578H24.7646Z" fill="#372462"/>
<path d="M17.9383 0C17.0893 0.0880014 16.2131 0.236927 15.3437 0.446776V9.23337L15.3029 9.19276L9.16952 3.08005C8.42917 3.5539 7.72277 4.07514 7.05713 4.63023L15.3165 12.8617L15.3437 12.8347V18.7849L15.3029 18.7443L4.16364 7.63581C3.62026 8.32628 3.11764 9.05737 2.67614 9.80877L8.2254 15.3393H8.16427C7.91975 15.319 7.70919 15.3122 7.51221 15.3122H0.448288C0.237728 16.1855 0.0882991 17.052 0 17.8981H7.50542C11.7913 17.8981 15.2893 21.3708 15.3029 25.6422V39.5329H15.3233C16.1927 39.7428 17.0621 39.8917 17.9179 39.9797C17.9179 39.9797 17.9247 39.9797 17.9315 39.9797V24.6878H22.1902V39.9797C23.0393 39.8917 23.9155 39.7428 24.7849 39.5329V31.8362L24.8256 31.8768L30.2866 37.3193C31.0405 36.8793 31.7741 36.3784 32.4669 35.8369L24.7849 28.1807V24.6878H27.1961L35.4826 32.9464C36.0396 32.2897 36.5626 31.579 37.0381 30.8411L30.8639 24.6878H39.6802C39.8908 23.8213 40.0402 22.9548 40.1285 22.1019H17.9383V0Z" fill="#372462"/>
<path d="M7.29486 22.125H0C0.0882991 22.9712 0.237728 23.8444 0.448288 24.7109H7.28807C7.93333 24.7109 8.46313 25.2321 8.46313 25.882V28.9756H2.0105C2.45879 29.8691 2.975 30.7356 3.55913 31.5615H8.46992V36.4557C9.29857 37.0378 10.168 37.5591 11.0646 37.9991V25.882C11.0646 23.8106 9.37329 22.1318 7.30165 22.1318L7.29486 22.125Z" fill="#372462"/>
<path d="M46.4179 17.8339H48.5643V8.22822H51.8925V6.3125H43.0693V8.22822H46.4179V17.8339Z" fill="#372462"/>
<path d="M55.411 18.0367C57.5981 18.0367 58.7459 16.7573 59.2282 15.9991L59.2554 15.9517L57.829 14.8686L57.795 14.9228C57.5641 15.2883 56.9528 16.2699 55.5128 16.2699C53.8488 16.2699 53.4548 14.9905 53.3665 14.3677H59.1942V14.3068C59.1942 14.2391 59.1942 14.1511 59.201 14.0698C59.201 13.9818 59.2078 13.8938 59.2078 13.8261C59.2078 11.1523 57.7679 9.55469 55.3634 9.55469C52.959 9.55469 51.3628 11.3079 51.3628 13.7246C51.3628 16.3105 52.9929 18.0434 55.411 18.0434V18.0367ZM53.4073 12.8175C53.4888 11.9036 54.3378 11.1996 55.3566 11.1996C56.3755 11.1996 57.0954 11.8495 57.1769 12.8175H53.4073Z" fill="#372462"/>
<path d="M64.4991 18.0346C66.4213 18.0346 67.6235 16.8296 68.0718 15.8007L68.0922 15.7465L66.4349 14.8665L66.4077 14.9342C66.0545 15.821 65.45 16.2542 64.5467 16.2542C63.2969 16.2542 62.5226 15.3065 62.5226 13.7834C62.5226 12.2603 63.2765 11.3126 64.5467 11.3126C65.6538 11.3126 66.1428 12.0708 66.3534 12.7139L66.3738 12.7816L68.0854 11.8813L68.065 11.8271C67.5013 10.3717 66.1972 9.53906 64.4923 9.53906C62.1015 9.53906 60.4917 11.2517 60.4917 13.8105C60.4917 16.3693 62.02 18.0278 64.4923 18.0278L64.4991 18.0346Z" fill="#372462"/>
<path d="M74.6127 12.2289C74.7214 12.608 74.7417 13.0818 74.7417 13.7385V17.8407H76.7862V13.2511C76.7862 11.6264 76.596 11.051 76.236 10.5501C75.7266 9.8664 74.9931 9.5347 73.981 9.5347C72.9214 9.5347 72.0113 9.93409 71.5562 10.5975V6.3125H69.5117V17.8339H71.5562V13.4948C71.5562 12.1274 72.1743 11.3421 73.261 11.3421C73.9946 11.3421 74.4429 11.6264 74.6127 12.2221V12.2289Z" fill="#372462"/>
<path d="M83.9179 12.2254C84.0265 12.6045 84.0469 13.0784 84.0469 13.735V17.8372H86.0914V13.2476C86.0914 11.623 85.9012 11.0476 85.5412 10.5467C85.0318 9.86295 84.2982 9.53125 83.2862 9.53125C82.2266 9.53125 81.3164 9.93064 80.8614 10.594V9.73433H78.8169V17.8372H80.8614V13.4981C80.8614 12.1307 81.4795 11.3454 82.5662 11.3454C83.2998 11.3454 83.7481 11.6297 83.9179 12.2254Z" fill="#372462"/>
<path d="M90.167 6.3125H88.1226V8.37715H90.167V6.3125Z" fill="#372462"/>
<path d="M90.167 9.73438H88.1226V17.8373H90.167V9.73438Z" fill="#372462"/>
<path d="M99.7238 15.9991L99.751 15.9517L98.3246 14.8686L98.2906 14.9228C98.0597 15.2883 97.4484 16.2699 96.0085 16.2699C94.3444 16.2699 93.9504 14.9905 93.8621 14.3677H99.6898V14.3068C99.6898 14.2391 99.6898 14.1511 99.6966 14.0698C99.6966 13.9818 99.7034 13.8938 99.7034 13.8261C99.7034 11.1523 98.2635 9.55469 95.859 9.55469C93.4546 9.55469 91.8584 11.3079 91.8584 13.7246C91.8584 16.3105 93.4885 18.0434 95.9066 18.0434C98.0937 18.0434 99.2416 16.764 99.7238 16.0059V15.9991ZM93.9029 12.8175C93.9844 11.9036 94.8334 11.1996 95.8522 11.1996C96.8711 11.1996 97.591 11.8495 97.6726 12.8175H93.9029Z" fill="#372462"/>
<path d="M103.5 15.3022L104.6 14.2935L107.005 17.8339H109.545L106.054 12.8991L109.287 9.73101H106.638L103.5 12.9126V6.3125H101.456V17.8339H103.5V15.3022Z" fill="#372462"/>
<path d="M51.1932 26.2148C51.1932 27.3046 51.2068 28.6111 51.2204 29.4776C51.2204 29.7213 51.2204 29.9311 51.2204 30.0868C51.0098 29.7484 50.6634 29.1933 50.4596 28.8819L46.0854 22.3359H44.1089V33.8573H46.2349V29.9921C46.2349 28.2659 46.2213 26.6886 46.2077 25.9914C46.2349 26.0388 46.2688 26.0861 46.296 26.1403C46.4318 26.3705 46.622 26.6818 46.8122 26.9797L51.3358 33.8641H53.3124V22.3427H51.1864V26.2283L51.1932 26.2148Z" fill="#372462"/>
<path d="M61.3678 30.9462C61.1369 31.3118 60.5256 32.2933 59.0856 32.2933C57.4215 32.2933 57.0276 31.0139 56.9393 30.3911H62.767V30.3302C62.767 30.2625 62.767 30.1745 62.7738 30.0933C62.7738 30.0053 62.7806 29.9173 62.7806 29.8496C62.7806 27.1757 61.3406 25.5781 58.9362 25.5781C56.5317 25.5781 54.9355 27.3314 54.9355 29.748C54.9355 32.3339 56.5657 34.0669 58.9837 34.0669C61.1708 34.0669 62.3187 32.7875 62.801 32.0293L62.8281 31.9819L61.4018 30.8988L61.3678 30.953V30.9462ZM56.98 28.8409C57.0615 27.9271 57.9106 27.2231 58.9294 27.2231C59.9482 27.2231 60.6682 27.8729 60.7497 28.8409H56.98Z" fill="#372462"/>
<path d="M69.9737 26.5194C69.5458 26.0455 68.7375 25.5581 67.6779 25.5581C65.518 25.5581 64.0645 27.2776 64.0645 29.8431C64.0645 32.4087 65.552 34.0604 67.6779 34.0604C68.622 34.0604 69.4099 33.7355 69.9737 33.1263V33.8573H72.0182V22.3359H69.9737V26.5194ZM68.0855 32.2733C66.8696 32.2733 66.1157 31.3256 66.1157 29.8025C66.1157 28.2794 66.8696 27.3182 68.0855 27.3182C69.3013 27.3182 70.0552 28.32 70.0552 29.8025C70.0552 31.285 69.2809 32.2733 68.0855 32.2733Z" fill="#372462"/>
<path d="M79.9991 30.9462C79.7682 31.3118 79.1569 32.2933 77.7169 32.2933C76.0529 32.2933 75.6589 31.0139 75.5706 30.3911H81.3983V30.3302C81.3983 30.2625 81.3983 30.1745 81.4051 30.0933C81.4051 30.0053 81.4119 29.9173 81.4119 29.8496C81.4119 27.1757 79.972 25.5781 77.5675 25.5781C75.1631 25.5781 73.5669 27.3314 73.5669 29.748C73.5669 32.3339 75.197 34.0669 77.6151 34.0669C79.8022 34.0669 80.9501 32.7875 81.4323 32.0293L81.4595 31.9819L80.0331 30.8988L79.9991 30.953V30.9462ZM75.6114 28.8409C75.6929 27.9271 76.5419 27.2231 77.5607 27.2231C78.5796 27.2231 79.2995 27.8729 79.3811 28.8409H75.6114Z" fill="#372462"/>
<path d="M87.4297 25.5469C86.1732 25.5469 85.46 26.1967 85.1543 26.7112V25.7432H83.1099V33.8461H85.1543V30.1974C85.1543 29.5069 85.2155 29.0399 85.3717 28.6472C85.657 27.9297 86.2343 27.598 87.1988 27.598C87.3618 27.598 87.552 27.6115 87.7286 27.6318H87.7965V25.5672H87.7422C87.5724 25.5469 87.5384 25.5469 87.4297 25.5469Z" fill="#372462"/>
<path d="M91.4034 22.3359H89.3589V33.8573H91.4034V22.3359Z" fill="#372462"/>
<path d="M100.111 31.92V27.9734C100.111 26.3826 99.0238 25.5703 96.8775 25.5703C95.9945 25.5703 94.7855 25.7328 94.0111 26.518C93.5493 26.9919 93.3183 27.6147 93.3319 28.3728V28.427L95.2541 28.5488V28.4811C95.2473 28.075 95.3492 27.7636 95.5666 27.547C95.8179 27.2897 96.239 27.1611 96.8028 27.1611C97.7333 27.1611 98.168 27.459 98.168 28.102V28.2374C98.168 28.4879 98.1408 28.5082 97.7197 28.5962L95.9605 28.8941C94.7787 29.1039 94.0111 29.4559 93.5561 30.0042C93.2436 30.3901 93.0874 30.8639 93.0874 31.4461C93.0874 33.0301 94.1877 34.0117 95.9673 34.0117C97.0337 34.0117 97.8284 33.7409 98.331 33.2061C98.5008 33.7341 98.9627 33.9778 99.771 33.9778C100.253 33.9778 100.511 33.9304 100.64 33.9034L100.742 33.8831V32.5156H100.579C100.178 32.5156 100.124 32.3938 100.124 31.9064L100.111 31.92ZM98.1612 30.0381V30.9181C98.1612 31.8996 97.5431 32.4615 96.4631 32.4615C95.6141 32.4615 95.1522 32.096 95.1522 31.4393C95.1522 30.8842 95.4579 30.6405 96.4088 30.4442L97.1492 30.2953C97.6722 30.187 97.9167 30.1193 98.168 30.0381H98.1612Z" fill="#372462"/>
<path d="M106.774 25.5469C105.714 25.5469 104.804 25.9463 104.349 26.6097V25.75H102.305V33.8528H104.349V29.5137C104.349 28.1463 104.967 27.3611 106.054 27.3611C106.788 27.3611 107.236 27.6454 107.406 28.2411C107.514 28.6202 107.535 29.094 107.535 29.7506V33.8528H109.579V29.2632C109.579 27.6386 109.389 27.0632 109.029 26.5623C108.52 25.8786 107.786 25.5469 106.774 25.5469Z" fill="#372462"/>
<path d="M116.962 22.3359V26.5194C116.535 26.0455 115.726 25.5581 114.667 25.5581C112.507 25.5581 111.053 27.2776 111.053 29.8431C111.053 32.4087 112.541 34.0604 114.667 34.0604C115.611 34.0604 116.399 33.7355 116.962 33.1263V33.8573H119.007V22.3359H116.962ZM115.074 32.2733C113.858 32.2733 113.104 31.3256 113.104 29.8025C113.104 28.2794 113.858 27.3182 115.074 27.3182C116.29 27.3182 117.044 28.32 117.044 29.8025C117.044 31.285 116.27 32.2733 115.074 32.2733Z" fill="#372462"/>
</g>
</g>
<defs>
<clipPath id="clip0_1773_10186">
<rect width="119" height="40" fill="white"/>
</clipPath>
<clipPath id="clip1_1773_10186">
<rect width="119" height="40" fill="white"/>
</clipPath>
</defs>
</svg>
